/* XPM */
static char *bb9dffe6250748f3fe452df0bcc76baeVCgoiMAkAo0AWx7n[] = {
/* columns rows colors chars-per-pixel */
"43 43 229 2 ",
"   c #3F1308",
".  c #461302",
"X  c #4D1604",
"o  c #4D1B03",
"O  c #4D170B",
"+  c #46190B",
"@  c #4C1B0C",
"#  c #451509",
"$  c #531604",
"%  c #531B04",
"&  c #5A1C03",
"*  c #52160D",
"=  c #541D0C",
"-  c #5B1D0C",
";  c #461912",
":  c #4C1C13",
">  c #4D1D1B",
",  c #481918",
"<  c #541D13",
"1  c #5B1E14",
"2  c #521E1B",
"3  c #571914",
"4  c #5A2203",
"5  c #54230C",
"6  c #5B230D",
"7  c #5C2A0D",
"8  c #542203",
"9  c #4C2115",
"0  c #4E231C",
"q  c #4E281B",
"w  c #552214",
"e  c #5B2313",
"r  c #552A17",
"t  c #5D2914",
"y  c #53231B",
"u  c #5A241B",
"i  c #5E2A1B",
"p  c #562B1A",
"a  c #642502",
"s  c #62250A",
"d  c #632A0D",
"f  c #69290D",
"g  c #672708",
"h  c #66300E",
"j  c #642512",
"k  c #652B13",
"l  c #61261C",
"z  c #632B1B",
"x  c #6C2B1C",
"c  c #712E14",
"v  c #64331C",
"b  c #6B341D",
"n  c #693516",
"m  c #72351E",
"M  c #723B1E",
"N  c #7B3C1C",
"B  c #783316",
"V  c #501D22",
"C  c #4F2121",
"Z  c #532421",
"A  c #542A22",
"S  c #702F2B",
"D  c #653626",
"F  c #6C3525",
"G  c #6E3B25",
"H  c #66362E",
"J  c #6D352B",
"K  c #6D3B2B",
"L  c #663A27",
"P  c #743624",
"I  c #793723",
"U  c #753B24",
"Y  c #7A3B24",
"T  c #72362B",
"R  c #743C2C",
"E  c #7C3D2C",
"W  c #79352B",
"Q  c #663B33",
"!  c #6C3C34",
"~  c #643B3B",
"^  c #6C3C3C",
"/  c #663635",
"(  c #733731",
")  c #743C33",
"_  c #7A3D33",
"`  c #733E3A",
"'  c #7A3C39",
"]  c #6F412A",
"[  c #754025",
"{  c #7C4124",
"}  c #75422B",
"|  c #7D422C",
" . c #764826",
".. c #6C4035",
"X. c #6C413B",
"o. c #674138",
"O. c #744334",
"+. c #7A4333",
"@. c #7A4933",
"#. c #74433C",
"$. c #7C423B",
"%. c #754A3C",
"&. c #7C4B3C",
"*. c #6E3E41",
"=. c #713E41",
"-. c #6C4745",
";. c #744444",
":. c #7D4C42",
">. c #754742",
",. c #7E5040",
"<. c #813C15",
"1. c #823E2C",
"2. c #853F26",
"3. c #823C30",
"4. c #89431E",
"5. c #824325",
"6. c #8D4622",
"7. c #85422C",
"8. c #844A2D",
"9. c #8A472A",
"0. c #944D2F",
"q. c #8B5123",
"w. c #90552A",
"e. c #814533",
"r. c #864B34",
"t. c #824D3E",
"y. c #8B4F3C",
"u. c #86473A",
"i. c #914E3D",
"p. c #8E5536",
"a. c #86533C",
"s. c #8C533C",
"d. c #8C593D",
"f. c #8B5536",
"g. c #955836",
"h. c #93533C",
"j. c #99563F",
"k. c #945A3D",
"l. c #9A5C3C",
"z. c #975736",
"x. c #A15F3F",
"c. c #9C633C",
"v. c #976239",
"b. c #A6643D",
"n. c #844D42",
"m. c #8C4D43",
"M. c #844643",
"N. c #944E44",
"B. c #855445",
"V. c #8B5443",
"C. c #8D5944",
"Z. c #86544B",
"A. c #8D544A",
"S. c #8D5A4C",
"D. c #935543",
"F. c #9B5743",
"G. c #945A44",
"H. c #9B5B42",
"J. c #92544B",
"K. c #935B4B",
"L. c #9A5D4A",
"P. c #8B5651",
"I. c #8E5C52",
"U. c #865951",
"Y. c #935B52",
"T. c #9A5B50",
"R. c #975C58",
"E. c #A15D41",
"W. c #A05C4F",
"Q. c #A25E54",
"!. c #966143",
"~. c #9D644A",
"^. c #986549",
"/. c #946953",
"(. c #9D6A55",
"). c #A36644",
"_. c #A96645",
"`. c #AC6D44",
"'. c #A4674B",
"]. c #A36A4C",
"[. c #AC6D4B",
"{. c #A66C47",
"}. c #B16F4D",
"|. c #B26847",
" X c #A7724D",
".X c #AE714E",
"XX c #AD7246",
"oX c #B3744C",
"OX c #BA7B4F",
"+X c #B07346",
"@X c #A46C54",
"#X c #AB6E53",
"$X c #A66D5B",
"%X c #AB6D5A",
"&X c #A46556",
"*X c #B16E53",
"=X c #B06D5D",
"-X c #A57354",
";X c #AC7353",
":X c #AE7955",
">X c #A4745B",
",X c #AB735C",
"<X c #A6785B",
"1X c #AD7A5C",
"2X c #B37553",
"3X c #B87654",
"4X c #B47A56",
"5X c #BB7B55",
"6X c #B2755B",
"7X c #B37B5C",
"8X c #BA7C5B",
"9X c #B9765B",
"0X c #A06C61",
"qX c #AC7463",
"wX c #AD7B63",
"eX c #A67663",
"rX c #B27562",
"tX c #B17961",
"yX c #B37B63",
"uX c #BA7C62",
"iX c #B37B69",
"pX c #B57969",
"aX c #B97970",
"sX c #C17A55",
"dX c #BC805C",
"fX c #B48062",
"gX c #BD8166",
"hX c #B4836B",
"jX c #B58475",
/* pixels */
"-.~ -.q r o <X-X-X8 l.l.0.3X4XwXX.~ X.y @ o <X<X1X% l.l.l.2X:XhX^ ~ ^ y = o tX,XyX% K.",
", A 9 &.B.B.e t 5 -X{ N a 3X7X5 w y : B.S.C.5 5 % 7XN N & 4X1X% > y > S.S.G.= % X tXY ",
"Y m o = &.A.m.= R wX@Xa $ 2Xj U Y U $ 6 J A.n.w } wX6X4 & ;X6 U U R X = R C.C.X { ;X3X",
"<.[.@XqX! ` R.J R qX7X;Xg.H.U E N }.,XpX) $.P.( R wX7X6Xp.H.| P Y 6XtXhXL O.Z.+.Y 2X2X",
"`.4XiXy ^ ^ ;.u < t wXyXk.P E E oX4XiX: =.;.! u < = iXwXd.Y E E 4X:XwX@ %.X.~ , @ $ 6X",
"5X7Xi > C / $.X F R } wXe D.K.D.4X8Xi 2 , X.#.O F +.F wX5 G.K.G.4X8X% 5   Q ;.> ) +.U ",
"v.7 ! / ..w b @XtX} R &.= = S.C.!.8 ! H X.@ G -XtX} +.K = = S.V.H.$ { U +.= R wXrX+.E ",
"d.[ K eX5 o  X8X6X6 _ F R @ w Z.C.[ K qX5 o  X8XtX- R ) K O < A.D.e.m 6X4 % 6XuXyX- U ",
"E Y Y 4XXXq.c.l.k $ R ,XqXO.; > +.P { 2XoXw.v.g.s $ R qXqXO., 2 ' P | rXuXH.l.h.& $ T ",
"- %X*X5XOXXXc.k.V.$ E +.qXK #.> 3 %X2X2XOX+Xl.k.V.* E R iXR #., < qXpX6X9X6XH.G.G.$ +.",
"m.W.1.9.5.fXw B.Y.R J.V.K.) ` ! J.L.7.5.{ uX6 C.Y.K J.J.J.' #.) D.~.E Y Y pX- V.K.+.K.",
"J.T.D.7.U +.; y ! A.A.T.$.1 ) T A.J.D.E R +.+ 9 ! I.T.T.u.3 ( R V.G.V.E R ) X < R K.D.",
"u Z.A.Y.^ ^ ~ , Z.K.K.1 ( e $ E u Z.Y.I.` ^ ^ 0 Z.S.A.3 ( 1 $ | = A.I.I.` ! X.> B.S.K.",
"< O.e u ` ;.*., w 1 _ ) < V.p.p.< ) w : / *.*.> w = T $.* J.k.p.= ) O : ! #.X.: w = P ",
"A.= Y s.B.O.) ( i.i.D.) K 5 g.4XG.= [ d.S.$.' T D.D.K.E +.= p.4XG.- +.K.Y.O.( _ D.F.F.",
"A.+.r.G.C.e ) E E j.D.G.R [ ;X:XG.+.a.G.C.= _ _ Y h.D.L.U Y ;X4XG.} A.K.V.3 R _ 1.h.H.",
">.X.#.w t % @X,XqX6 G.k.p.-X6XwX#.Q #.w 5 o >X1XtX& G.h.k.6X:XfXO./ O.w O O yX,XwXt a.",
": y y :.B.V.7 7 5 >X{ N a .XgXe : A : B.B.S.5 5 = ,XY 5.& .X7X6 @ y # Z.S.K.5 % % 1X .",
"U U O u ) B.Z.< R rX;Xa & [.f Y Y b = u ) B.B.w R qX8Xg & *Xj E E R = O ! S.B.5 M {.5X",
"B #X$X0X>.#.Z.) R %X8X.Xz.c.Y E N 4X$XqX` #.I.` T qX7X;Xl.l.3.W I ,XyXjXQ X.U.} Y ;X3X",
"b.3XyXH ^ ^ >.u < 6 tX7XH.U E Y `.2XiXu ^ *.` < < = ,X1XG.| E E *X6XiX9 ~ -.~ C < X %X",
"oX4Xb > > / O.O F R } qXt B.A.D.4X8Xz > V / ` < F R R eXt V.K.G.8X8X6 . ; X.-.; ` ) R ",
"c.h v F K i P ].,X[ K %.y : S.K.H.6 ) ! ^ y F $XyXY +.O.w # B.C.D.6 U U [ % b wXwX+.+.",
"k.[ G ,X6 & ).7X6Xk K D #.+ < B.C.} R $Xt % ~.yX7X6 R K O.: : B.K.E Y 6Xa & .X8XtXw + ",
"R U { oX`.w.b.l.k % U $XqX+.@ w R U Y 2XoXw.).k.d & P qXqX&.: > J R { ;X5Xl.l.p.6 O ! ",
"1 &X[.oX5XoXl.k.s.% U r.$X+.` < * &X9XoXOXoXk.d.s.- P _ qX$.#.2 1 $XyX;X4X4Xl.H.G.w H ",
"M.Q.7.9.{ 7Xt B.S.R s.D.J.$.! ) J.L.7.5.Y yXt B.K.R J.J.J.$.` J V.L.{ { M 7X6 V.K.+.K.",
"N.Q.D.E R O.9 y K A.J.T.u.1 ) K J.J.D.| R ) : 9 K S.V.K.' 1 R ) s.G.V.@.R R @ @ R V.L.",
"x u.J.A.` #./ 0 Z.S.T.3 ) 1 X +.l M.T.R.` ` ^ 0 B.I.K.u ) 1 . R e n.S.I.#.X.Q y &.K.K.",
"1 _ l w ` >.^ y < w ) ' O V.a.d.e ) < < ! =.^ 2 w @ R ) * V.G.k.6 R @ , ^ ^ ^ y < 6 x ",
"K.e U &.V.$.' S m.m.V.+.R 6 f.4XH.6 U a.S.$.' T D.D.D._ +.6 r.2Xl.s R A.R.$.' ) J.N.F.",
"K.+.t.G.K.e W E E h.G.C.} U .X2XG.} a.C.C.e P 1.Y h.D.K.R U ;X4X!.[ V.K.J.1 T _ E h.j.",
":.` #.u i % '.;X6Xd k.G.s.6X2X8Xt.Q X.w w % #X*X9Xf s.G.C.-X4X7X%.o.o.r = X $XrX6Xd f.",
"y > y :.t.s.k d 4 ~.{ { k '.uXk : y 9 %.B.G.6 s & '.8.Y 7 ~.dX6 + A ; ,.A.K.6 % 4 ].8.",
"K L @ = O.B.A.e E $X6Xd 4 ].k Y R K @ r K B.S.u F &XyXd o ].f Y E F e 3 ( A.J.1 P *X3X",
"Y @X>X(.&.O.P.) ( $XrX#Xp.^.[ b N ;X>X>XO.X.U.#.! @X7X:Xk.~.Y Y 2.*X=XaXM.' A.$.R %X4X",
"'.6XyXF K X.>.Z y w qXtX~.Y [ { ).3X7Xv ! ^ X.y 9 e @X7X!.| E E _.3XgXe / ;.X.> ; . @X",
"}.8Xm = w Q Q 9 D L R ,Xz y.V.D.3X3Xn o : / X.9 D R U ,Xz a.K.G.4X8Xd = + Q o.0 ..D } ",
"x.f U U K p L /.eX@.} e.e = A.K.H.g M G G i G @XwXe.E +.w + Z.V.k.4 [ G ] w L (.wXr.U ",
"k.Y U @Xk o /.wXwXv F R R 1 < n.D.{ M -Xd & !.yXiXk T T ) w : n.C.| U -Xh o ].yXtXk U ",
"R [ Y {..Xg.k.L.b = P &X$X&.Z 2 ( R { {.2Xz.l.H.j $ I $XeX,.y : K [ Y ].8Xl.l.H.k X J ",
"w ^.#X8XoXsXE.F.D.- U | qX&.Q C 2 T.6X5XoXsXE.H.G.6 U U >XO.! u O (.yX8X2X8XE.h.h.z F ",
"&.^.8.6.4.|.B 7.D.E y.D.G.+.! #.n.L.5.4.6.|.c r.G.| f.k.d.@.K ) V.^.U Y 9._.c 9.H.E V."
};
