/* XPM */
static char *_741c6eef4a942e292f4d8012ca5dfeddBDADKm6RoUo4uOZ[] = {
/* columns rows colors chars-per-pixel */
"64 64 42 1 ",
"  c #21181B",
". c #3B2027",
"X c #7D3833",
"o c #AB5130",
"O c #CF752B",
"+ c #F0B541",
"@ c #FFEE83",
"# c #C8D45D",
"$ c #63AB3F",
"% c #3B7D4F",
"& c #2F5753",
"* c #283540",
"= c #1B1F21",
"- c #2B2B45",
"; c #3A3F5E",
": c #4C6885",
"> c #4FA4B8",
", c #92E8C0",
"< c #F5FFE8",
"1 c #DFE0E8",
"2 c #A3A7C2",
"3 c #686F99",
"4 c #404973",
"5 c #2C354D",
"6 c #14182E",
"7 c #4B1D52",
"8 c #692464",
"9 c #9C2A70",
"0 c #CC2F7B",
"q c #FF5277",
"w c #FFC2A1",
"e c #FF8933",
"r c #E64539",
"t c #AD2F45",
"y c #781D4F",
"u c #4F1D4C",
"i c #291D2B",
"p c #3D2936",
"a c #52333F",
"s c #8F4D57",
"d c #BD6A62",
"f c #FFAE70",
/* pixels */
"OOoXXooooaXXXXXooooXXXoOOooXooooXaXXXXoooooXXXOOOooXooooXaXXXXoo",
"OoXXXXXXX.XooooXooooooOOOoXXXXXXXaoooooXooooooOOOoXXXXXXaaoooooX",
"OoXXXXXaaXoOOOoXXooooOOOOoXXXXXaaXoOOOoXoooooOOOoXXXXXXaaXoOOOoX",
"Xa...XooooXXXXXooXXXXOOoXa...XooooXXXXoooXXXoOOoXa...XooooXXXXoo",
"Xaaa..XXoooX..XOOoX.XOoXXaaa.aXXooXX.aoOooa.oOoXaaaa.aXXooXa.aoO",
"XXXXXXXXXoooaXoOOOXXXOXaXXXXXXXXXooXaXoOOoXXoOXaXXXXXXXXXooXaXoO",
"XXoOOOOoXXooXXoOOOOoooXXXXoOOOOoXXooXXoOOOOoooXXXXoOOOoXXXoXXXoO",
"XooOOOoXXXXXXaXoOOOooXXXXoOOOOoXXXXXXaXoOOOooXXXXoOOOOoXXXXXaaXo",
"XoOOOoaaXXXX...aoOOooXXXXOOOOoaaXXXX...XoOOoXXXXoOOOOo.XXXXa...X",
"ooOOoa..aXXXaXXXXoOoXooooOOOoa..aXXXaXXXXoOXXooooOOOXa..XXXXaXXX",
"ooooXaaaaaXXoooXXXoX.XooooooXaaaaaXXoooXXXoaaXooooooXaaaaaXooooX",
"oooXXXXXa.XoOOOXXXXa..XooooaXXXXa.XoOOoXXXXa.aXoooXaXXXXaaXoOOoX",
"oooXXoOo..oOOOoXXXXXX..XoooXXoOX.aoOOOoaXXXXX.aXoooXXooX.XoOOOoa",
"XXXXXoOOoXoOooX.XXoooX..XXXXXoOooXoOooX.XooooX.aXXXXXoOooooOooX.",
".aXoooOOOooooXa.XooOOXa..aXoooOOOooooXa.XoOOoXa..XXoooOOOooooX..",
"..XoOOOOOOooooXaXXXOoXXX..XOOOOOOOooooXaXXoOoXXa..oOOOOOOOooooXa",
"XXoooooooOoXoooXXooooXXXXXoooooooOoXoooXXooooXXXXXooooooOOooooXX",
"XooooXXXXoXaXooXoooooXXXXooooXXXooXXoooXooooXXXXXoooXXXXooXXoooX",
"XoooooXXXXX.aXXooooXXaXXXoooooXXXXa.aXoooooXXaXXXoooooXXXXa.aXoo",
"XXXooooXXXXa.XooooXXX..XXXXooooXXXXa.XooooXXa.aXXXoooooXXXX.aXoo",
"XXaooooXXXXX.XoooXaaXXXXXaXooooXXXXX.XoooXaXXXXXXaXoooXXXXXaaXoo",
"oXaXXaaXXXXX..aaXXXaXooooXaXXaaXXXXX.aaaXXXaXooooXXXaaaXXXXa.aaX",
"OoXaaXXooXXXXXXXoXXXXXooOoXaaXXoXXXXXXXXoXXXXXooooXaaXXoXXXXXXXX",
"OOoXXooooXXXXXooooXXXaoOOooXXooooXXXXoooooXXXXoOOoXaXoooXXXXXooo",
"OOoXXooooaXXXXXooooXXXoOOooXooooXaXXXXoooooXXXOOOoXXooooXaXXXXoo",
"OoXXXXXXX.oooooXooooooOOOoXXXXXXaaoooooXooooooOOOoXXXXXXaaoooooX",
"ooXXXXXXXXoooooXoooooOOOoXXXXXXXXXoooooXoooooOOOoXXXXXXXXXoooooX",
"Xa...XooooXaaaXOoXXaXOOoX....XooooXaaaoOoXXaoOOoa....XooooXaaXoO",
"XXXX..XXoooX..XOOoa.XOoXXXXa..XXoooX.aoOOoa.oOoXXXXa.aXXooXX.XoO",
"XXXoXXXXXoooXXoOOOXXooXaXXXoXXXXXooXaXoOOoXXooXXXXXoXXXXXooXaXoO",
"XXoOOOOoXXooXXoOOOOoooXXXXoOOOOoXXooXXoOOOOoooXXXXoOOOoXXXoXXXoO",
"XoOOOOoXXXXXaaXXOOOooXXXXoOOOOoXXXXXaaXoOOOooXXXXoOOOoXXXXXXaaXo",
"XoOOOoaaXXXX..paoOOoXXXXoOOOOo.aXXXX...XoOOoXXXXoOOOoX.aXXXa...X",
"ooOOoa..aXXXaXXXXoOoXooooOOOXa..aXXXaXXXXoOXXooooOOOX...XXXXaXXX",
"ooooXXXXXaXXoooXXXoX.XoooooXXXXXaaXooooXXXoa.XoooooXXXXXaaXooooX",
"oooXXXoXa.XoOOOXXXXa..XooooaXXoXa.XoOOoXXXXa..XoooXaXXoX.aoOOOoX",
"oooXXoOoaaoOOOoXXXXXX..XoooXXoOX.XoOOOoaXXXXX..XoooXXoOX.XoOOOo.",
"XXXXXoOOooooooX.XooOoX..XXXXXoOOooooooX.XooooX.aXXXXXoOoooooooX.",
".aXoooOOOooooXa.XXoOOXa..aXoooOOOooooXa.XoOOoXa..aXoooOOOooooXa.",
"..XOOOOOOOooooXaXXXooXXX..XOOOOOOOooooXaXXoOoXXa.aoOOOOOOOooooXa",
"XXoooooooOoXoooXXooooXXXXXoooooooOoXoooXXooooXXXXXooooooOOXXooXX",
"XooooXXXXoXaXooXooooXXXXXooooXXXooXaXoooooooXXXXXoooXXXXooXXXooo",
"XXooooXXXXX..XXooooXX.XXXoooooXXXXa.aXoooooXX.XXXoooooXXXXa.aXoo",
"XXXooooXXXXa.XooooXXX..aXXXooooXXXXa.XooooXXX..XXXXooooXXXXaaXoo",
"XXaXoXXXXXXX.XXXoXaaXXXXXaXooXXXXXXX.XXXoXaaXXXXXaXoXXXXXXXaaXXX",
"oXaXXaaXXXXX..aaXXXaXooooXaXaaaXXXXX.aaaXXXaXooooXXXaaaXXXXa.aaX",
"OoXaaXXooXXXXXooooXXXXooOoXaaXXoXXXXXXoooXXXXXooOoXaXXooXXXXXXoo",
"OOoXXooooXXXXXooooXXXXoOOooXXooooXXXXXooooXXXXoOOoXXXoooXXXXXooo",
"OooXXooooaXXXXXooooXXXoOOooXooooXaXXXXoooooXXoOOOoXXooooXaXXXXoo",
"OoXXXXXXa.oOOOoXoooooOOOOoXXXXXXaaoOOOoXoooooOOOOoXXXXXX.XoOOOoX",
"oXXXXXXXXXoooooooooXoOOOoXXXXXXXXXoooooooooXoOOOoXXXXXXXXXoooooo",
"X....aooooXaa.XOoXXaXOOoX....XooooXaaaoOoXXaoOOoa....XooooXapaoO",
"XXXXa.XXoooX.aoOOoX.XOoXXXXX..XXoooX.aoOOoa.oOoXXXXX.aXXoooX.XoO",
"XXXooooXXoooXXoOOOoXooXaXXXoooXXXoooXXoOOOoXooXXXXXoooXXXooXXXoO",
"XXoOOOOoXXooXXoOOOOoooXXXXoOOOOoXXooXXoOOOOoooXXXXoOOOoXXXoXXXoO",
"XoOOOOoXXXXXapaXoOOooXXXXoOOOOXXXXXXaaaXOOOooXXXXoOOOoXXXXXXaaXo",
"ooOOOoa.XXXX..aaoOOoXXXXoOOOoX.aXXXX..aXoOOoXXXXoOOOoX.aXXXa.aaX",
"ooOOoa..aXXXXXXXXoOXXooooOOOX...aXXXXXXXXoOXXooooOOoX...aXXXXXXX",
"oooXXXXXXaXXoOoXXXoX.XoooooXXXXXaaXooOoXXXXa.XoooooXXXXXaaXooOoX",
"oooXXXoXa.XoOOOXXXXX..XooooXXXoXp.ooOOoXXXXa..XoooXaXooX.aoOOOoX",
"oooXXoOoaaoOOOoaXXXXXa.XoooXXoOoaXoOOOoaXXXXX..XoooXXoOXaXoOOOoa",
"XXXXXoOOooooooX.XooOoX..XXXXXoOOoooooXX.XoOOoX..XXXXXoOOoooooXa.",
"..XoooOOOOoooXX.aXoOOXXa.aXoooOOOooooXa.XooOoXa..aXooOOOOooooXa.",
"a.XOOOOOOOoooooaXXXooXXX..XOOOOOOOooooXaXXoOoXXX.aoOOOOOOOooooXa"
};
