/* XPM */
static char *_0fb2661da0f4047840c646c847c826axGCRGDE29NBfxiW4[] = {
/* columns rows colors chars-per-pixel */
"75 64 5 1 ",
"  c None",
". c #2B2B45",
"X c #3A3F5E",
"o c #4FA4B8",
"O c #92E8C0",
/* pixels */
"                                                                           ",
"                                                                           ",
"                                                                           ",
"                                                                           ",
"                                                                           ",
"                                                                           ",
"                                                                           ",
"                                                                           ",
"                             ................                              ",
"                             ................                              ",
"                             ................                              ",
"                             ................                              ",
"                             ................                              ",
"                             ................                              ",
"                        .....OOOOOooooooooooo................              ",
"                        .....OOOOOooooooooooo................              ",
"                        .....OOOOOooooooooooo................              ",
"                        .....OOOOOooooooooooo................              ",
"                        .....OOOOOooooooooooo................              ",
"             ................ooooooooooo.....oooooooooooOOOOO.....         ",
"             ................ooooooooooo.....oooooooooooOOOOO.....         ",
"             ................ooooooooooo.....oooooooooooOOOOO.....         ",
"             ................ooooooooooo.....oooooooooooOOOOO.....         ",
"             ................ooooooooooo.....oooooooooooOOOOO.....         ",
"        .....OOOOOooooooooooo...........OOOOOoooooooooooooooo.....         ",
"        .....OOOOOooooooooooo...........OOOOOoooooooooooooooo.....         ",
"        .....OOOOOooooooooooo...........OOOOOoooooooooooooooo.....         ",
"        .....OOOOOooooooooooo...........OOOOOoooooooooooooooo.....         ",
"        .....OOOOOooooooooooo...........OOOOOoooooooooooooooo.....         ",
"        .....OOOOOooooooooooo...........OOOOOoooooooooooooooo.....         ",
"        .....ooooooooooooooooOOOOO...........oooooOOOOOOooooo.....         ",
"        .....ooooooooooooooooOOOOO...........oooooOOOOOOooooo.....         ",
"        .....ooooooooooooooooOOOOO...........oooooOOOOOOooooo.....         ",
"        .....ooooooooooooooooOOOOO...........oooooOOOOOOooooo.....         ",
"        .....ooooooooooooooooOOOOO...........oooooOOOOOOooooo.....         ",
"        .....oooooOOOOOOooooo...........XXXXX.....oooooo.....              ",
"        .....oooooOOOOOOooooo...........XXXXX.....oooooo.....              ",
"        .....oooooOOOOOOooooo...........XXXXX.....oooooo.....              ",
"        .....oooooOOOOOOooooo...........XXXXX.....oooooo.....              ",
"        .....oooooOOOOOOooooo...........XXXXX.....oooooo.....              ",
"             .....oooooo.....XXXXX......XXXXX...........                   ",
"             .....oooooo.....XXXXX......XXXXX...........                   ",
"             .....oooooo.....XXXXX......XXXXX...........                   ",
"             .....oooooo.....XXXXX......XXXXX...........                   ",
"             .....oooooo.....XXXXX......XXXXX...........                   ",
"             .....oooooo.....XXXXX......XXXXX...........                   ",
"                  ...........XXXXXXXXXXX.....XXXXX......                   ",
"                  ...........XXXXXXXXXXX.....XXXXX......                   ",
"                  ...........XXXXXXXXXXX.....XXXXX......                   ",
"                  ...........XXXXXXXXXXX.....XXXXX......                   ",
"                  ...........XXXXXXXXXXX.....XXXXX......                   ",
"                             .....XXXXXX.....XXXXX......                   ",
"                             .....XXXXXX.....XXXXX......                   ",
"                             .....XXXXXX.....XXXXX......                   ",
"                             .....XXXXXX.....XXXXX......                   ",
"                             .....XXXXXX.....XXXXX......                   ",
"                                                                           ",
"                                                                           ",
"                                                                           ",
"                                                                           ",
"                                                                           ",
"                                                                           ",
"                                                                           ",
"                                                                           "
};
