/* XPM */
static char *_775185cfc704f1ef264e14ad93e6b2eTyWudmhNEJoJPAyv[] = {
/* columns rows colors chars-per-pixel */
"38 38 213 2 ",
"   c #0B0000",
".  c #130400",
"X  c #110900",
"o  c #79130E",
"O  c #6D1D19",
"+  c #7F141A",
"@  c #5E241C",
"#  c #5E2A1D",
"$  c #5E2713",
"%  c #622A16",
"&  c #62231D",
"*  c #622D1A",
"=  c #642519",
"-  c #71201F",
";  c #66341B",
":  c #561D23",
">  c #771E24",
",  c #4C2E2E",
"<  c #5B2B2A",
"1  c #582923",
"2  c #55352D",
"3  c #5C2F31",
"4  c #4A3933",
"5  c #573431",
"6  c #5B3534",
"7  c #513C33",
"8  c #533439",
"9  c #58383D",
"0  c #642A23",
"q  c #6A2B22",
"w  c #682928",
"e  c #782828",
"r  c #64322B",
"t  c #66342B",
"y  c #6C3634",
"u  c #673A37",
"i  c #7D3926",
"p  c #544133",
"a  c #6C473D",
"s  c #784738",
"d  c #794948",
"f  c #78724E",
"g  c #7B6D53",
"h  c #756E5A",
"j  c #7C6E5B",
"k  c #756555",
"l  c #7D7250",
"z  c #7D715C",
"x  c #756E62",
"c  c #7E6D62",
"v  c #6F7060",
"b  c #7B7464",
"n  c #7B766A",
"m  c #7F7868",
"M  c #737663",
"N  c #841E1A",
"B  c #871B18",
"V  c #892922",
"C  c #922E2B",
"Z  c #992E26",
"A  c #8C352B",
"S  c #8B3B2A",
"D  c #843729",
"F  c #9B362C",
"G  c #8D3B33",
"H  c #873836",
"J  c #913933",
"K  c #9C3C33",
"L  c #983737",
"P  c #A0312A",
"I  c #A43532",
"U  c #BD3733",
"Y  c #BD3D35",
"T  c #B53E3B",
"R  c #BB3E3B",
"E  c #B53D34",
"W  c #BB372B",
"Q  c #C13B36",
"!  c #C33D3B",
"~  c #C93E3E",
"^  c #834137",
"/  c #9C443D",
"(  c #9E4A3F",
")  c #A4433D",
"_  c #AC433C",
"`  c #A44B3D",
"'  c #AA4538",
"]  c #B34337",
"[  c #BC4234",
"{  c #B4443C",
"}  c #BC433B",
"|  c #B64A3E",
" . c #BB493E",
".. c #C34234",
"X. c #C3423B",
"o. c #CA433E",
"O. c #C1483D",
"+. c #883F40",
"@. c #BA3F40",
"#. c #C43D43",
"$. c #864447",
"%. c #9E4646",
"&. c #964E4A",
"*. c #9B514A",
"=. c #985851",
"-. c #A54441",
";. c #AD4543",
":. c #A44C43",
">. c #AB4B44",
",. c #A54F4C",
"<. c #AC4D4A",
"1. c #B54543",
"2. c #BC4442",
"3. c #B34A43",
"4. c #BC4A44",
"5. c #B44C4A",
"6. c #BA4A49",
"7. c #A35447",
"8. c #AB5142",
"9. c #A2544A",
"0. c #AA524D",
"q. c #AC5A4C",
"w. c #B55149",
"e. c #AD4D51",
"r. c #B05751",
"t. c #8E665E",
"y. c #847459",
"u. c #896C65",
"i. c #916B60",
"p. c #847C6A",
"a. c #817764",
"s. c #C34442",
"d. c #CA4442",
"f. c #C64843",
"g. c #C74848",
"h. c #B9A98B",
"j. c #B6AD92",
"k. c #BAAC92",
"l. c #BBAC9B",
"z. c #BCB196",
"x. c #C3A58B",
"c. c #C7AA8E",
"v. c #C9A58A",
"b. c #C3A393",
"n. c #CBA294",
"m. c #C3AA94",
"M. c #C9AA92",
"N. c #C8A89A",
"B. c #D0A795",
"V. c #C2B896",
"C. c #C7B4A2",
"Z. c #DFB7AE",
"A. c #DCBCB2",
"S. c #EABDAC",
"D. c #E8BBB4",
"F. c #FBB7A4",
"G. c #D9C3BA",
"H. c #DCD4BC",
"J. c #DDD5B0",
"K. c #E6D4AD",
"L. c #E0C0B5",
"P. c #E4D4B4",
"I. c #EBD5B4",
"U. c #E6D9B4",
"Y. c #EBDBB4",
"T. c #E3D6BD",
"R. c #EAD5BB",
"E. c #E5DABC",
"W. c #ECDCBB",
"Q. c #F1DEB5",
"!. c #F3DDBC",
"~. c #EEE1B7",
"^. c #F3E1BE",
"/. c #DFDAC3",
"(. c #E5DAC4",
"). c #ECDCC2",
"_. c #E2D6C3",
"`. c #FFD5C5",
"'. c #FFD5CD",
"]. c #FFDACD",
"[. c #FFDCD3",
"{. c #FFDEDA",
"}. c #EDE2C3",
"|. c #E7E2C5",
" X c #F5E2C7",
".X c #FFE2D5",
"XX c #FFE4DB",
"oX c #FFEBDC",
"OX c #EDECE8",
"+X c #FFE3E3",
"@X c #FFEAE3",
"#X c #FFE4E9",
"$X c #FFEDEC",
"%X c #F3E9E6",
"&X c #FDF3E3",
"*X c #F6F4ED",
"=X c #FDF4EC",
"-X c #FFF9ED",
";X c #F7F1E3",
":X c #FFEEF1",
">X c #FFE7F0",
",X c #FEF3F3",
"<X c #FEFEF5",
"1X c #FDFBF4",
"2X c #FFF4FB",
"3X c #F5FDFC",
"4X c #FFFAFA",
"5X c #FFFEFA",
"6X c #FBFEFE",
"7X c #FEFFFF",
"8X c #FDFDFE",
"9X c #FEFEFE",
"0X c #F5F6F8",
/* pixels */
"5X5X7X6X7X6X5X5X5X5X1X&X@X@X+X> + B B B N o N V @X$X@X,X,X4X4X7X7X6X6X7X7X7X",
"1X5X7X7X3X7X,X4X$X,X,X@Xr q e e.5.1.1.1._ 3.3.-.- w u ,X,X%X4X,X7X7X7X7X7X0X",
"<X1X7X6X7X7X,X:X$X8 5 r *.>.1.T 1.] 2.T 2.} 2.1.<.,.'.r < a @XXX=X,X4X4X7X4X",
"<X5X7X8X4X$X#X6 9 +X+X'.>.T } s. . .s.R s.2.{ 3.;.>.r.'.].[.q t =X@X$X5X5X5X",
"5X1X7X$X@X6 y {.+X$X{.[._ g.Y Y } } } T 6.) >.8.>._ ' 3.;.>.>./ & y @X@X1X<X",
"6X5X:X+Xy &.&.XXXXoXoX].3.E X.X.Y X.s.2.-.XX[.].:.3.4.} } E 4.6.:.=.t XX=X<X",
"7X2X#Xw %.<.w.:..X[.`.7.{ } X.Y o.U R 5.XX.XoX.X[._ } Y Y Q ! R 6.<.&.u =X-X",
"8X2X#Xe 3.] ] | >.7.q.` { } X.X.Q X.} 5.[.XXoXoX'.3.} X.o.Q ~ @.1.0.[.t XX-X",
"2X#Xe <. .} [  .{ { { { } s.Q X.Q X.2.>.XXXXXXXX[._ X.~ Y X.X.} <.[.oX.X7 -X",
":X,XO _ } [ [ } } s.R X.s.! ~ X.o.Q E ;.9.XX.X[.) { f.Q O.E s.1.0..X.XoXp oX",
"#Xr :.{ [ Y s.s.R ! X.X.Q d.~ Q X.W d.} _ >.:.:.3.} } Y } } s.{ :.[.XXoX.X2 ",
"=X@ >.} O.X.R R ! d.Q Y Q Y ~ Q [ [ Q X.} 2.1.{ ] E O.[ } O.E } >.7.'.'.[.t ",
"$Xw ;.} Y Y s.#.#.d.Y X.} X.2.2.|  .} Q ~ o.E } } O.E Y X.X.Y Q 2.1.;.<.,.O ",
":X& ) {  .R g.#.! Q ..[ }  .1.) :.:.3.s.~ Q X.X.} E Y d.Q U X.X.Y s.2.1.3.N ",
">Xr *.` ' | @.s.! ....[ { 3.:.@X[..X/ 4.~ o.X.Y } } d.! ~ d.d.} } } } T { B ",
"2X< =.`.].`.>.1.} ....[ | ` XX[.oXXXXX;.} Q Y X.} } ~ ! ! R 5.>.w.' 4.2.1.N ",
"2X8 A.oXoX.X.X( { } X...{ :..XoX@XXX[.:. .} Y X.2.s.~ ! 1.0.+XXXXX7.5.;.J e ",
"#X,X4 G.oXoX].7.3.} Y Y 4.:.XX.XXXXXXX:.] [ X.X.R s.! T _ [.@X@XXXXX%.L 0 $X",
"7X8X4 G.L.XXXX,._ g.! Q } 1.<.{.{.{./ { } X.Q Q s.2.} { 8.].XX@XoXD.H +.< @X",
"7X*X$X7 A.D.^ J L I } } } 4.;.;.:.:.5.4.} Q f.R 1.6.] ' 8.F.S.A.A.Z.d < -X-X",
"7X7X,X$X5 d $.H J C K F Z F C K K V K V Z Z P I F C K F S i S.Z.D.d 6 $X1X1X",
"8X7X4X=X@X3 : $.+.H D S D G A G S S G G J J A A G G G D S ^ s a 6 , ,X$X5X6X",
"8X7X4X5X$X$X$X3 1 0 * * ; * % % % $ # # # @ = q 0 0 q q = 0 1 2 $X,X,X5X6X3X",
"8X8X7X<X5X=X:X$X$Xt.n.x.x.x.M.v.v.M.b.N.N.b.B.n.n.n.n.B.n.i.=X,X4X4X7X4X6X3X",
"8X8X7X7X7X7X2X,X$Xu.b.M.c.x.c.M.x.m.l.. &Xm.m.m.m.m.N.oXC.c <X,X7X7X7X6X6X6X",
"8X7X7X6X6X7X8X4X4Xu.R.W.P.R.!.I.R.)._.X   ).P.!.R.).).. _.x <X4X7X6X6X6X7X7X",
"7X7X7X6X6X7X7X7X=Xc  XE.}.Y.!.!.R.).}.  . W.^.I.W.W.W.. H.b 5X0X6X6X7X7X7X7X",
"7X7X7X7X7X7X7X7X<Xb H.E.l W.W.I.W.W.W.E.W.K.!.Q.!.I.W.W.).b <X6X7X7X7X7X7X7X",
"7X7X7X7X7X7X7X7X1Xv /.|.l J.}.y.Y.Y.U.W.W.Q.K.Y.P.!.Y.I.!.j 4X0X7X7X7X7X8X8X",
"7X7X7X7X7X7X7X5X<XM |.E.V.l l h.Y.Y.Y.~.K.Y.!.^.W.W.Q.!.I.j 5X8X7X7X7X7X7X7X",
"7X7X7X5X5X5X7X5X*Xb T.T.W.h.V.P.Y.Y.Y.U.Y.Y.P.E.E.E.Y.K.^.z <X6X7X7X7X7X7X7X",
"7X7X7X5X7X7X7X5X*Xm T.).W.Y.W.W.Y.Q.Y.~.Y.Y.W.).).E.U.}.P.p.*X0X7X7X7X7X7X6X",
"7X7X7X7X7X7X7X5X1X;Xp.(.P.Y.W.Y.Y.Y.Y.Y.W.U.W.W.R.).(.(.b <X1X7X7X7X7X7X7X7X",
"7X7X7X7X7X7X7X7X5X*Xb H.}.U.U.Y.Y.Y.E.}.P.}.W.P.W.).l.x n *X,X7X7X7X7X7X7X7X",
"7X7X7X7X7X7X7X7X1X5X;Xp.H.}.W.W.W.W.k.j.j.j.k.z.h.k.b x <X*X5X5X7X7X7X7X7X7X",
"7X7X7X7X7X7X7X7X7X<X;Xm /.(.W.W.W.k.b h a.h g g y.z b x 1XOX5X1X7X7X7X7X7X7X",
"7X7X7X7X7X7X7X7X7X7X*X=Xp.z.h.k.C.j =X1X-Xm z z j h m *X*X5X5X5X7X7X7X7X7X7X",
"7X7X7X7X7X7X7X7X7X4X5X-X;Xz g y.k 1X%X1X<X;Xp.j a.h ;X*X1X6X1X5X7X7X7X7X7X7X"
};
