/* XPM */
static char *_c8a1e3614574b5ed2c91adaf2e1e55e657ak8doWbHS7VhK[] = {
/* columns rows colors chars-per-pixel */
"64 64 12 1 ",
"  c None",
". c black",
"X c #751C1C",
"o c #7A705B",
"O c #A72828",
"+ c #D23232",
"@ c #BDAE8D",
"# c #D0C8B7",
"$ c #EEDBB1",
"% c #FCF2DE",
"& c #FFFBF4",
"* c white",
/* pixels */
"                        ***************                         ",
"                        ***************                         ",
"                   *****XXXXXXXXXXXXXXX*****                    ",
"                   *****XXXXXXXXXXXXXXX*****                    ",
"               ****XXXXX+++++++++++++++XXXXX*****               ",
"           ****XXXX+++++++++++++++++++++++%%XXXXX***            ",
"           ****XXXX+++++++++++++++++++++++%%XXXXX***            ",
"        ***XXXX%%%%+++++++++++++++++++++++++%%%%%XXX****        ",
"      **XXX%%%%%%%%+++++++++++++++++++++++++++++++++XXXX*       ",
"      **XXX%%%%%%%%+++++++++++++++++++++++++++++++++XXXX*       ",
"     *XX+++%%%%%%%%+++++++++++++++%%%%%+++++++++++++++++X**     ",
"     *XX+++%%%%%%%%+++++++++++++++%%%%%+++++++++++++++++X**     ",
"   **X+++++++%%%%%+++++++++++++++%%%%%%%%++++++++++++++++XX**   ",
"   **X+++++++++++++++++++++++++++%%%%%%%%+++++++++++++++%XX**   ",
"   **X+++++++++++++++++++++++++++%%%%%%%%+++++++++++++++%XX**   ",
" **XX++++++++++++++++++++++++++++%%%%%%%%+++++++++++++%%%%%XX*  ",
" **XX++++++++++++++++++++++++++++%%%%%%%%+++++++++++++%%%%%XX*  ",
" **XX+++++++++++++++++++++++++++++%%%%%+++++++++++++++%%%%%XX*  ",
"*XX+++++++++++++++++++++++++++++++++++++++++++++++++++%%%%%%%X**",
"*XX+++++++++++++++++++++++++++++++++++++++++++++++++++%%%%%%%X**",
"*XX+++++++++++++++++++++++++++++++++++++++++++++++++++++%%%%%X**",
"*XX+++++++++++++++++++++++++++++++++++++++++++++++++++++%%%%%X**",
"*XX++++++++++++++++++++++++++++++++++++++++++++++++++++++++++X**",
"*XX++++++++++++++++++++++++++++++++++++++++++++++++++++++++++X**",
"*XX++++++++++++++++++++++++++++++++++++++++++++++++++++++++++X**",
"*XX+++++++++++++++++++++%%%%%++++++++++++++++++++++++++++++++X**",
"*XX+++++++++++++++++++++%%%%%++++++++++++++++++++++++++++++++X**",
"*XX++%%%%%+++++++++++++%%%%%%%%++++++++++++++++++++++++++++++X**",
"*XX##%%%%%%++++++++++++%%%%%%%%++++++++++++++++++%%%%%+++++OOX**",
"*XX##%%%%%%++++++++++++%%%%%%%%++++++++++++++++++%%%%%+++++OOX**",
" **XX#%%%%%++++++++++++%%%%%%%%++++++++++++++++%%%%%%%%%+OOXX*  ",
" **XX###%%%+++++++++++++%%%%%++++++++++++++++++%%%%%%%##OOOXX*  ",
" **XX###%%%+++++++++++++%%%%%++++++++++++++++++%%%%%%%##OOOXX*  ",
"   **X####OOOOOO+++++++++++++++++++++++++++++++#########OXX**   ",
"   **X####OOOOOO+++++++++++++++++++++++++++++++#########OXX**   ",
"     *XXOOOOOOOOOOOOOOOOOOOOOOOOOOOOOOOOOOOOOOOOO#####OOX**     ",
"      **XXXOOOOOOOOOOOOOOOOOOOOOOOOOOOOOOOOOOOOOOOOOXXXX*       ",
"      **XXXOOOOOOOOOOOOOOOOOOOOOOOOOOOOOOOOOOOOOOOOOXXXX*       ",
"        ***XXXXXXXXXXXXXXXXXXXXXXXXXXXXXXXXXXXXXXXXX****        ",
"        ***XXXXXXXXXXXXXXXXXXXXXXXXXXXXXXXXXXXXXXXXX****        ",
"           ****o@@@@@@@@@@@@@@@@@@@@@@@@@@@@@@@oo***            ",
"             **o@@@@@@@@@@@@@@@..&@@@@@@@@@@&&@oo**             ",
"             **o@@@@@@@@@@@@@@@..&@@@@@@@@@@&&@oo**             ",
"             **o$$$$$$$$$$$$$$$...$$$$$$$$$$..$oo**             ",
"             **o$$$$$$$$$$$$$$$...$$$$$$$$$$..$oo**             ",
"             **o$$$$$$$$$$$$$$$...$$$$$$$$$$..$oo**             ",
"             **o$$$oo$$$$$$$$$$$$$$$$$$$$$$$$$$oo**             ",
"             **o$$$oo$$$$$$$$$$$$$$$$$$$$$$$$$$oo**             ",
"             **o$$$oo$$$oo$$$$$$$$$$$$$$$$$$$$$oo**             ",
"             **o$$$oo$$$oo$$$$$$$$$$$$$$$$$$$$$oo**             ",
"             **o$$$@@ooo@@$$$$$$$$$$$$$$$$$$$$$oo**             ",
"             **o$$$$$@@@$$$$$$$$$$$$$$$$$$$$$$@oo**             ",
"             **o$$$$$@@@$$$$$$$$$$$$$$$$$$$$$$@oo**             ",
"             **o$$$$$$$$$$$$$$$$$$$$$$$$$$$$@@ooo**             ",
"             **o$$$$$$$$$$$$$$$$$$$$$$$$$$$$@@ooo**             ",
"             **o$$$$$$$$$$$$$$$$$$$$$$$$$$@@ooooo**             ",
"             **o$$$$$$$$$$$$@@@@@@@@@@@@@@ooooooo**             ",
"             **o$$$$$$$$$$$$@@@@@@@@@@@@@@ooooooo**             ",
"             **o@@$$$$$$@@@@ooooooooooooooooooooo**             ",
"               *oo@@@@@@oooo***********oooooooooo**             ",
"               *oo@@@@@@oooo***********oooooooooo**             ",
"                **oooooo****           **oooooo**               ",
"                **oooooo****           **oooooo**               ",
"                  ******                 ******                 "
};
