/* XPM */
static char *a56f5f3bb87e4b56d24c0d4629b5ebc4ceFE9LespS2GypVG[] = {
/* columns rows colors chars-per-pixel */
"64 64 218 2 ",
"   c None",
".  c black",
"X  c #3B3529",
"o  c #443C2B",
"O  c #735B4D",
"+  c #756B53",
"@  c #796F5A",
"#  c #756A55",
"$  c #7B715C",
"%  c #70664F",
"&  c #7E7561",
"*  c #4A4C4E",
"=  c #8A0000",
"-  c #970000",
";  c #841C1C",
":  c #9E1D1C",
">  c #A70202",
",  c #AA0303",
"<  c #BC0103",
"1  c #A4191A",
"2  c #BB1B1B",
"3  c #B90E11",
"4  c #AF1D20",
"5  c #842020",
"6  c #8B2024",
"7  c #9F2425",
"8  c #8C3737",
"9  c #903B3B",
"0  c #9C3F3F",
"q  c #A32626",
"w  c #A72828",
"e  c #AC2929",
"r  c #A52827",
"t  c #BE2223",
"y  c #B82B2B",
"u  c #A83939",
"i  c #B53633",
"p  c #D11F24",
"a  c #C52E2E",
"s  c #CB2C2C",
"d  c #C62527",
"f  c #D12226",
"g  c #D12628",
"h  c #D22C2D",
"j  c #D22F30",
"k  c #CD3131",
"l  c #C03F3F",
"z  c #D23232",
"x  c #D23837",
"c  c #D33C3B",
"v  c #99413E",
"b  c #AA413D",
"n  c #D3413F",
"m  c #C5403D",
"M  c #8F4343",
"N  c #944746",
"B  c #995756",
"V  c #8A5951",
"C  c #AA4947",
"Z  c #BA4845",
"A  c #A35755",
"S  c #BC5D56",
"D  c #946C59",
"F  c #94705B",
"G  c #866959",
"H  c #986E6E",
"J  c #976866",
"K  c #867B65",
"L  c #9A7373",
"P  c #9D7B79",
"I  c #9B766A",
"U  c #A76D69",
"Y  c #A37C7C",
"T  c #B37873",
"R  c #B46C67",
"E  c #D44542",
"W  c #D44E49",
"Q  c #D44945",
"!  c #D5534E",
"~  c #D65A54",
"^  c #C6544F",
"/  c #D7625B",
"(  c #D86B64",
")  c #D86760",
"_  c #DA736B",
"`  c #DA786F",
"'  c #DC7D74",
"]  c #C16E65",
"[  c #8E826B",
"{  c #8D8167",
"}  c #92856B",
"|  c #95896E",
" . c #8E8571",
".. c #8E887C",
"X. c #998F7A",
"o. c #968B75",
"O. c #9E9174",
"+. c #B9857A",
"@. c #AA9C7D",
"#. c #A49679",
"$. c #A6857C",
"%. c #DD857B",
"&. c #DE887E",
"*. c #C48479",
"=. c #9C968A",
"-. c #9D8F8C",
";. c #AA8A85",
":. c #B68985",
">. c #AA9886",
",. c #B89489",
"<. c #AD9594",
"1. c #A39D93",
"2. c #AF9898",
"3. c #B39D9B",
"4. c #B89494",
"5. c #AFA081",
"6. c #B5A585",
"7. c #B7A887",
"8. c #BCAD8D",
"9. c #B7A888",
"0. c #AEA492",
"q. c #B6A59A",
"w. c #BFB295",
"e. c #B6A2A2",
"r. c #BBA9A7",
"t. c #B6B3AC",
"y. c #B7B0A0",
"u. c #BBB8B1",
"i. c #DF8C82",
"p. c #C7988B",
"a. c #DB968A",
"s. c #E09589",
"d. c #E29B8E",
"f. c #E09286",
"g. c #E39E91",
"h. c #C2B28F",
"j. c #C4AB9D",
"k. c #C4B592",
"l. c #C9B995",
"z. c #CEBE99",
"x. c #C7B796",
"c. c #D0BF9A",
"v. c #DCA699",
"b. c #E3A395",
"n. c #E5AA9C",
"m. c #E4A699",
"M. c #C3A9A4",
"N. c #C5B2A4",
"B. c #C8B4A8",
"V. c #C4B3B2",
"C. c #C1BDB7",
"Z. c #C6B9B9",
"A. c #CABCBC",
"S. c #C8B0B0",
"D. c #D0B4AA",
"F. c #E5AFA1",
"G. c #E7B1A2",
"H. c #E9B5A6",
"J. c #EBBDAD",
"K. c #E8B9AA",
"L. c #D3C29D",
"P. c #D7C6A1",
"I. c #D8C7A2",
"U. c #DDCCA4",
"Y. c #D0C5AD",
"T. c #CDC3B3",
"R. c #C4C1BC",
"E. c #D1C9B8",
"W. c #D6C6B5",
"Q. c #D4C8B1",
"!. c #E1CFA7",
"~. c #E5D3AA",
"^. c #E9D6AD",
"/. c #EBD8AF",
"(. c #ECC5B5",
"). c #E9CAB9",
"_. c #F0CEBD",
"`. c #EEDBB1",
"'. c #E0D0BE",
"]. c #F0DDB2",
"[. c #F0D0BF",
"{. c #CCC3C2",
"}. c #CDCBC7",
"|. c #CECCC8",
" X c #D0C4C4",
".X c #D1CDCB",
"XX c #D9CECE",
"oX c #DDD5C2",
"OX c #D9D4CC",
"+X c #DCD4D4",
"@X c #DFD9D9",
"#X c #DBDAD7",
"$X c #EEDECC",
"%X c #E2D5C4",
"&X c #F2D4C3",
"*X c #F4DCCA",
"=X c #F3D8C6",
"-X c #E2DCDC",
";X c #EFE0CD",
":X c #F5E1CE",
">X c #EDE3D1",
",X c #E2E1DF",
"<X c #F5E4D1",
"1X c #F8E7D4",
"2X c #F9EAD6",
"3X c #FAEDDA",
"4X c #F6ECD9",
"5X c #FCF2DE",
"6X c #E5E2E1",
"7X c #E9E6E6",
"8X c #E9E8E6",
"9X c #EDEAEA",
"0X c #F1EEEE",
"qX c #FDF5E0",
"wX c #F2F0EF",
"eX c #F4F3F2",
"rX c #FDFDFD",
"tX c #F8F7F7",
/* pixels */
"                                                  rXrXrXrXrXrXrXrXrXrXrXrXrXrX                                                  ",
"                                                7X-X-X-X-X-X-X-X-X-X-X-X-X-X-X9X                                                ",
"                                        rXrXrXeXA.P L L L L L L L L L L L H ;.@XrXrXrXrX                                        ",
"                                    rX@X{.{.{.A.:.1 > > > > > > > > > > > > C M.{.{.A. X9X                                      ",
"                            eX0X0X0X9XS.B 9 M M i k z k k k k k k k k k k z k u M N B ;.+X0X0X0X0X                              ",
"                        rXrX+X3.2.2.2.T y 2 2 2 s z z z z z z z z z z z z z z d 3 i p.W.r.2.2.2.r.7XrXrX                        ",
"                      -X@X+XA.,.;.;.;.] x z z z z z z z z z z z z z z z z z z z h E g.(.j.;.;.;.q..X@X-X9X                      ",
"                rXrXwXV.L P N.$X<X<X;Xn.E h z z z z z z z z z z z z z z z z z z z x W %.(.$X$X;X'.;.J Y XXrXrXrX                ",
"              0X XZ.Z.B.N.B.%X5XqXqX3XH.Q h z z z z z z z z z z z z g f f p f h z z p ! g.H.H.H.b.S , u 4.Z.Z.+X                ",
"            eX+X;.6 D W.3X5X5X5X5X5X3XH.Q h z z z z z z z z z z h x / _ _ ` ( W j z z x c E E E n x z k u 8 N M.7X              ",
"          tX{.:.Z < ^ (.5XqX5X5X5X5X3XH.Q h z z z z z z z z z z g ! G.&X&X&X(.%.h z z z h h h h h z z z a 2 t R 3.-XrX          ",
"        9XXX4.e d h ! b.&X3XqXqXqX2X_.s.n h z z z z z z z z z x ( b.*X5XqXqX2XJ.%.W h z z z z z z z z z z z z < C S.-X          ",
"      rX+XY Z k z z x W s.*X3X3X3X[.%.Q x z z z z z z z z z h x b.:X5X5X5X5X5X2X(.) f z z z z z z z z z z z z n ^ A e.0X        ",
"      rX+XV , z z z z f ~ g.n.n.n.s.W f z z z z z z z z z z h x n.3XqX5X5X5X5XqX&X( p z z z z z z z z z z h h &.F.U <.0XrX      ",
"      9X XA 2 z z z z z x c c c c x x z z z z z z z z z z z h x n.2XqX5X5X5X5X5X[.( p z z z z z z z z z z Q ` J.:Xj.q.-X0X      ",
"    9Xr.U l s z z z z z z h h h h h z z z z z z z z z z z z h x n.2X5X5X5X5X5X5X_.( f z z z z z z z z z g ` (.1X3X>XW.3. XrX    ",
"  rX9X<.- s z z z z z z z z z z z z z z z z z z z z z z z z h x &.(.1XqXqXqX3X&Xn.~ h z z z z z z z z z f %.*XqX5XqX'.H Z.rX    ",
"  rX6X;.1 k z z z z z z z z z z z z z z z z z z z z z z z z z z c _ (.2X2X2X*Xd.W x z z z z z z z z z z f %.*XqX5X5X%X$.Z.eX    ",
"rX+Xe.R d k z z z z z z z z z z z z z z z z z z z z z z z z z z f n &.b.m.m.d./ f z z z z z z z z z z z f %.*XqX5X5X<XW.B.V.6X  ",
"rXZ.9 t z z z z z z z z z z z z z z z z z z z z z z z z z z z z z z x x x x x x z z z z z z z z z z z z g ` (.1X5X5XqX3XN.P -XrX",
"rXZ.8 t z z z z z z z z z z z z z z z z z z z z z z z z z z z z z z j h h h h z z z z z z z z z z z z z j Q ` J.3X5X5X3XN.L -XrX",
"rXZ.9 t z z z z z z z z z z z z z z z z z z z z z z z z z z z z z z z z z z z z z z z z z z z z z z z z z h j %.J.(.(.J.+.L -XrX",
"rXZ.9 t z z z z z z z z z z z z z z z z z z z z z z z z z z z z z z z z z z z z z z z z z z z z z z z z z z z E ! ! ! ! e H -XrX",
"rXZ.9 t z z z z z z z z z z z z z z z z z z z z h g g g g h z z z z z z z z z z z z z z z z z z z z z z z z z h g f f f , H -XrX",
"rXZ.9 t h h h h h h z z z z z z z z z z z z h x ( &.&.i.%./ h j z z z z z z z z z z z z z z z z z z z z z z z z z z z z , H -XrX",
"rXZ.9 t x c n n n c z z z z z z z z z z z z j ! F.*X:X:X=Xd.E z z z z z z z z z z z z z z z z z z z z z z z z z z z z z , H -XrX",
"rXZ.8 2 _ m.G.F.F.i.c f z z z z z z z z z z ( n.=X5XqXqX5X[.g.~ h z z z z z z z z z z z z z z z j g p f p g j z z z z k , H -XrX",
"rXZ.9 Z b.<X3X3X3X(.` E z z z z z z z z z h s.:X5X5X5X5X5X5X&X' f z z z z z z z z z z z z z z z n ~ ) ) ) ~ n z z z z k > H -XrX",
"rXZ.V ,.).3XqXqX5X1X(.&.z z z z z z z z z h d.1XqX5X5X5X5XqX*X' f z z z z z z z z z z z z z z f ) J._._._.H.) f z z k y - H -XrX",
"rX X3.q.T.>X3X5X5XqX2Xb.x h z z z z z z z h d.1XqX5X5X5X5XqX*X' f z z z z z z z z z z z z h c _ n.:XqX5XqX:Xn._ c s y w U e.6X  ",
"  eX-X<.;.E.>X5X5XqX2Xb.x h z z z z z z z h s.:X5X5X5X5X5X5X&X' f z z z z z z z z z z z z g W G.<X3X5X5X5X3X<XF.W t 1 9 V.9X    ",
"  rX9X;.I T.oX>X3XqX2Xb.x h z z z z z z z z _ G.*X5XqXqX5X&Xb./ h z z z z z z z z z z z z f ! (.5XqX5X5X5X3X>Xv.Z 4 - 8 A.rX    ",
"    9Xe.;.N.T.'.>X4X$Xa.k s k k z z z z z z z ~ G.:X<X<X*Xg.Q z z z z z z z z z z z z z z g ! K.4X4X4X4X4X>X'.p.b 1 0 L {.rX    ",
"      6XA.;.q.E.oXD.p.S y y y y k z z z z z h x _ i.f.f.i./ h h z z z z z z z z z z z z z h W v.oXoXoXoXoXoXE.,.b = Y XX7X      ",
"        -Xr.q.q.j.+.u 1 w r w e y a a a a a a a a d d d d a a a a a a a a a a a a a a a a a m *.j.T.E.E.E.T.j.T N ;.Z.0X        ",
"          9XV.J A C w r w w w e e e e e e e e e e e e e e e e e e e e e e e e e e e e e e e e b T N.T.T.T.N.T v H .XeX          ",
"            @XV.B = = : e e e e w w w w w w w w w w w w w w w w w w w w w w w w w w w w w w r 1 C +.,.:.;.I 9 ;.{.7X            ",
"              7X3.L L B 7 7 7 7 7 7 7 7 7 7 7 7 7 7 7 7 7 7 7 7 7 7 7 7 7 7 7 7 7 7 7 7 7 7 7 q q w w u J P P A.eX              ",
"                6X6X+X<.5 ; 5 5 5 5 5 5 5 5 5 5 5 5 5 5 5 5 5 5 5 5 5 5 5 5 5 5 5 5 5 5 5 5 5 5 ; ; = N V.-X6X7X                ",
"                  rXtX{.r.e.;.O V F F F F F F F F F F F F F F F F D D F F F F F F F F D D D D V G 2.r.r.-XrXrX                  ",
"                      eXeXeX{.[ #.9.6.6.6.6.6.6.6.6.6.6.6.6.6.6.7.8.9.6.6.6.6.6.6.6.6.9.8.8.6.} =.-XeXeX                        ",
"                        rXrX.X .@.8.8.8.8.8.8.8.8.8.8.8.8.8.6.| y.%XY.8.8.8.8.8.8.8.8.x.oXoXw.| 1.8XrX                          ",
"                          rX.Xo.6.l.l.l.l.l.l.l.l.l.x.x.l.l.6.% 1.OXW.l.l.l.l.l.l.l.l.L.OXoXx.O.1.8XrX                          ",
"                          rX.XX.k.~.~.~.~.~.~.~.~.~.~.~.~.~.z.% * ..x.~.~.~.~.~.~.~.~.I.1.0.P.6.1.7XrX                          ",
"                          rX.XX.c.`.`.].].`.`.`.`.`.`.`.`.].L.% . o k.`.`.`.`.`.`.`.].U.$ } U.9.1.7XrX                          ",
"                          rX.XX.z.`.`./.^./.`.`.`.`.`.`.`.].P.K X % l.`.`.`.`.`.`.`.].U.} O.U.9.1.7XrX                          ",
"                          rX.XX.z.`.`.L.h.U.`.`.`.`.`.`.`.`.~.l.8.k.U.`.`.`.`.`.`.`.`.^.z.L.~.6.1.7XrX                          ",
"                          rX.XX.z.`./.8.o.L.].`.~.U.^.`.`.`.`.`.`.`.`.`.`.`.`.`.`.`.`.`.`.`.^.6.1.7XrX                          ",
"                          rX.XX.z.`./.8.o.L.`.^.k.6.U.`.`.`.`.`.`.`.`.`.`.`.`.`.`.`.`.`.`.].^.6.1.7XrX                          ",
"                          rX.XX.z.`./.l.#.9.k.k.>.>.U.`.`.`.`.`.`.`.`.`.`.`.`.`.`.`.`.`.`.].^.6.1.7XrX                          ",
"                          rX.XX.z.`.`.I.8.O.{ } @.l.~.`.`.`.`.`.`.`.`.`.`.`.`.`.`.`.`.`.`.`.~.6.1.7XrX                          ",
"                          rX.XX.z.`.`.^.I.9.#.@.l.!./.`.`.`.`.`.`.`.`.`.`.`.`.`.`.`.`.`.`.~.c.#.1.7XrX                          ",
"                          rX.XX.z.`.`.`.^.P.l.z.U.`.`.`.`.`.`.`.`.`.`.`.`.`.`.`.`.`.`.`.~.L.6.{ 1.8XrX                          ",
"                          rX.XX.z.`.`.`.`.^.^.^./.`.`.`.`.`.`.`.`.`.`.`.`.`.`.`.`.`.`.^.L.6.[ @ 1.8XrX                          ",
"                          rX.XX.z.`.`.`.`.`.`.`.`.`.`.`.`.`.`.`.`.`.`.`.`.`.`.`.`.`.~.L.6.} $ + 1.8XrX                          ",
"                          rX.XX.z.`.`.`.`.`.`.`.`.`.`./.^.^.^.^.^.^.^.^.^.^.^.^.^.^.L.6.} $ $ + 1.8XrX                          ",
"                          rX.XX.z.`.`.`.`.`.`.`.`.`.`.~.L.z.z.z.z.z.z.z.z.z.z.z.z.z.6.} $ @ $ + 1.8XrX                          ",
"                          rX.Xo.h.~.`.`.`.`.`.`.^.~.!.z.6.@.@.@.@.@.@.@.@.@.@.@.>.@.| $ @ $ $ + 1.8XrX                          ",
"                          rX.XX.5.c.^.`.`.`.`.^.P.k.k.6.o. . . . . . . . . .[ K K K K $ $ $ $ + 1.8XrX                          ",
"                            6X{.0.5.c.I.I.I.I.L.9.O.o.q.{.|.}.}.}.}.}.}.}.|.R.=.+ @ @ $ $ $ $ % =.8XrX                          ",
"                              wXC.>.6.7.7.7.7.7.>.=.=.R.eXrXrXrXrXrXrXrXrXrX0Xu...& @ @ @ @ $  .y.8XrX                          ",
"                                8X.X>.{ { { { o.C.,X6X7X                      8X}...+ @ @ # K C.6X                              ",
"                                  7XC.t.t.t.t.u.#XrXrX                          7XC.t.t.t.t.u.@XrX                              ",
"                                    eXeXeXeXeXeX                                  eXeXeXeXeXeX                                  "
};
