/* XPM */
static char *_2be3b873b1d4b71b78570705ce268ec6sUKohjRdt7Npa7F[] = {
/* columns rows colors chars-per-pixel */
"64 66 5 1 ",
"  c None",
". c #3B2027",
"X c #7D3833",
"o c #AB5130",
"O c #CF752B",
/* pixels */
"                                                                ",
"                                             ........           ",
"                                             ........           ",
"                                             ........           ",
"                                             ........           ",
"                                    .........ooooOOOO....       ",
"                                    .........ooooOOOO....       ",
"                                    .........ooooOOOO....       ",
"                                    .........ooooOOOO....       ",
"                            ........ooooOOOOOOOOOoooo....       ",
"                            ........ooooOOOOOOOOOoooo....       ",
"                            ........ooooOOOOOOOOOoooo....       ",
"                            ........ooooOOOOOOOOOoooo....       ",
"                            ........ooooOOOOOOOOOoooo....       ",
"                       .....ooooOOOOOOOOOOOOOoooooooo....       ",
"                       .....ooooOOOOOOOOOOOOOoooooooo....       ",
"                       .....ooooOOOOOOOOOOOOOoooooooo....       ",
"                       .....ooooOOOOOOOOOOOOOoooooooo....       ",
"                   ....OOOOOOOOOOOOOooooXXXXXXXXXoooo....       ",
"                   ....OOOOOOOOOOOOOooooXXXXXXXXXoooo....       ",
"                   ....OOOOOOOOOOOOOooooXXXXXXXXXoooo....       ",
"                   ....OOOOOOOOOOOOOooooXXXXXXXXXoooo....       ",
"               ....OOOOOOOOOOOOOooooXXXXXXXXXXXXXoooo....       ",
"               ....OOOOOOOOOOOOOooooXXXXXXXXXXXXXoooo....       ",
"               ....OOOOOOOOOOOOOooooXXXXXXXXXXXXXoooo....       ",
"               ....OOOOOOOOOOOOOooooXXXXXXXXXXXXXoooo....       ",
"           ....OOOOOOOOoooooXXXXXXXXXXXXXXXXXXXXXoooo....       ",
"           ....OOOOOOOOoooooXXXXXXXXXXXXXXXXXXXXXoooo....       ",
"           ....OOOOOOOOoooooXXXXXXXXXXXXXXXXXXXXXoooo....       ",
"           ....OOOOOOOOoooooXXXXXXXXXXXXXXXXXXXXXoooo....       ",
"           ....OOOOOOOOoooooXXXXXXXXXXXXXXXXXXXXXoooo....       ",
"           ....ooooXXXXXXXXXXXXXXXXXXXXXoooooXXXXoooo....       ",
"           ....ooooXXXXXXXXXXXXXXXXXXXXXoooooXXXXoooo....       ",
"           ....ooooXXXXXXXXXXXXXXXXXXXXXoooooXXXXoooo....       ",
"           ....ooooXXXXXXXXXXXXXXXXXXXXXoooooXXXXoooo....       ",
"           ....XXXXXXXXoooooXXXXXXXXXXXXoooooXXXXoooo....       ",
"           ....XXXXXXXXoooooXXXXXXXXXXXXoooooXXXXoooo....       ",
"           ....XXXXXXXXoooooXXXXXXXXXXXXoooooXXXXoooo....       ",
"           ....XXXXXXXXoooooXXXXXXXXXXXXoooooXXXXoooo....       ",
"           ....XXXXXXXXoooooXXXXXXXXXXXXXXXXXooooXXXXoooo.....  ",
"           ....XXXXXXXXoooooXXXXXXXXXXXXXXXXXooooXXXXoooo.....  ",
"           ....XXXXXXXXoooooXXXXXXXXXXXXXXXXXooooXXXXoooo.....  ",
"           ....XXXXXXXXoooooXXXXXXXXXXXXXXXXXooooXXXXoooo.....  ",
"      .....ooooXXXXooooXXXXXXXXXXXXXXXXXXXXXXooooXXXXXXXXooooo..",
"      .....ooooXXXXooooXXXXXXXXXXXXXXXXXXXXXXooooXXXXXXXXooooo..",
"      .....ooooXXXXooooXXXXXXXXXXXXXXXXXXXXXXooooXXXXXXXXooooo..",
"      .....ooooXXXXooooXXXXXXXXXXXXXXXXXXXXXXooooXXXXXXXXooooo..",
"      .....ooooXXXXooooXXXXXXXXXXXXXXXXXXXXXXooooXXXXXXXXooooo..",
"  ....oooooXXXXXXXXXXXX.........XXXXXXXXXXXXXoooooooo.........  ",
"  ....oooooXXXXXXXXXXXX.........XXXXXXXXXXXXXoooooooo.........  ",
"  ....oooooXXXXXXXXXXXX.........XXXXXXXXXXXXXoooooooo.........  ",
"  ....oooooXXXXXXXXXXXX.........XXXXXXXXXXXXXoooooooo.........  ",
"..ooooXXXXXXXXX........         ........XXXXXXXXXoooooooo.....  ",
"..ooooXXXXXXXXX........         ........XXXXXXXXXoooooooo.....  ",
"..ooooXXXXXXXXX........         ........XXXXXXXXXoooooooo.....  ",
"..ooooXXXXXXXXX........         ........XXXXXXXXXoooooooo.....  ",
"...............                         .........XXXXooooooooo..",
"...............                         .........XXXXooooooooo..",
"...............                         .........XXXXooooooooo..",
"...............                         .........XXXXooooooooo..",
"...............                         .........XXXXooooooooo..",
"                                                 .............  ",
"                                                 .............  ",
"                                                 .............  ",
"                                                 .............  ",
"                                                                "
};
