/* XPM */
static char *c10ce3c122da4fb0cb383dbc1acf916ee6kFXDmPitE2VhZU[] = {
/* columns rows colors chars-per-pixel */
"64 66 4 1 ",
"  c #283540",
". c #2F5753",
"X c #3B7D4F",
"o c #63AB3F",
/* pixels */
"...     oooo  XXXXooooo....     ooooo XXXXXoooo.....    ooooo XX",
"   XXXXX    oo... ooo      XXXXX     o...  ooo      XXXX     o..",
"   XXXXX    oo... ooo      XXXXX     o...  ooo      XXXX     o..",
"..   .XXX  .ooo   oo .....   .XXXX ..ooo   o  ....   ..XXX ..ooo",
"ooooo...X...oooooXXX....ooooo...XX...ooooXXX.....oooo...XX...ooo",
"ooooo...X...oooooXXX....ooooo...XX...ooooXXX.....oooo...XX...ooo",
"ooo  ....     oooX.....oooo  .....    oooXX....ooooo .....    oo",
"oo    ...  ....oo XXXXXooo    .... .....o  XXXXooo     ... .....",
"oo    ...  ....oo XXXXXooo    .... .....o  XXXXooo     ... .....",
"  ....  .ooo.....   XXXX  ....  ..ooo....   XXXXX ..... ..ooo...",
"...oo   oooo  ....   XXX...oo   ooooo .....   XXX...o   ooooo ..",
"...oo   oooo  ....   XXX...oo   ooooo .....   XXX...o   ooooo ..",
"...oooXXXXX   .ooo..   ....oooXXXXX   ..ooo.   .....oooXXXX   ..",
"ooooooooXXXX  ...o...   ooooooooXXXXX ...oo...   oooooooXXXXX ..",
"ooooooooXXXX  ...o...   ooooooooXXXXX ...oo...   oooooooXXXXX ..",
"XX....oo XXX..XXXX.....XXX....oo  XXX.XXXXX....XXX.....o  XXX.XX",
"XXX.....   .XXXXX.  ...XXXX.....   ..XXXX.. ...XXXXX....   ..XXX",
"XXX.....   .XXXXX.  ...XXXX.....   ..XXXX.. ...XXXXX....   ..XXX",
"XXXXX....  XXXX  .   .. XXXXX..... XXXXX ..   .  XXXX..... XXXXX",
"XXXXX....  XXXX  .   .. XXXXX..... XXXXX ..   .  XXXX..... XXXXX",
"..   ....     ... XXXXX ..   .....    ...  XXXX  .   .....    ..",
"  .XXX.....XXXX...  XooX  .XXX.....XXXXX... XXoXX ..XXX....XXXXX",
"  .XXX.....XXXX...  XooX  .XXX.....XXXXX... XXoXX ..XXX....XXXXX",
"..XXXX  ....XXXXX...oooX..XXXX  .....XXXX...oooXX.XXXXX .....XXX",
"...     oooo  XXXXooooo....     ooooo XXXXXoooo.....    ooooo XX",
"...     oooo  XXXXooooo....     ooooo XXXXXoooo.....    ooooo XX",
"   XXXXX    oo... ooo      XXXXX     o...  ooo      XXXX     o..",
"..   .XXX  .ooo   oo .....   .XXXX ..ooo   o  ....   ..XXX ..ooo",
"..   .XXX  .ooo   oo .....   .XXXX ..ooo   o  ....   ..XXX ..ooo",
"ooooo...X...oooooXXX....ooooo...XX...ooooXXX.....oooo...XX...ooo",
"ooo  ....     oooX.....oooo  .....    oooXX....ooooo .....    oo",
"ooo  ....     oooX.....oooo  .....    oooXX....ooooo .....    oo",
"oo    ...  ....oo XXXXXooo    .... .....o  XXXXooo     ... .....",
"  ....  .ooo.....   XXXX  ....  ..ooo....   XXXXX ..... ..ooo...",
"  ....  .ooo.....   XXXX  ....  ..ooo....   XXXXX ..... ..ooo...",
"...oo   oooo  ....   XXX...oo   ooooo .....   XXX...o   ooooo   ",
"...oooXXXXX   .ooo..   ....oooXXXXX   ..ooo.   .....oooXXXX   ..",
"...oooXXXXX   .ooo..   ....oooXXXXX   ..ooo.   .....oooXXXX   ..",
"ooooooooXXXX  ...o...   ooooooooXXXXX ...oo...   oooooooXXXXX ..",
"ooooooooXXXX  ...o...   ooooooooXXXXX ...oo...   oooooooXXXXX ..",
"XX....oo XXX..XXXX.....XXX....oo  XXX.XXXXX....XXX.....o  XXX.XX",
"XXX.....   .XXXXX.  ...XXXX.....   ..XXXX.. ...XXXXX....   ..XXX",
"XXX.....   .XXXXX.  ...XXXX.....   ..XXXX.. ...XXXXX....   ..XXX",
"XXXXX....  XXXX  .   .. XXXXX..... XXXXX ..   .  XXXX..... XXXXX",
"..   ....     ... XXXXX ..   .....    ...  XXXX  .   .....    ..",
"..   ....     ... XXXXX ..   .....    ...  XXXX  .   .....    ..",
"  .XXX.....XXXX...  XooX  .XXX.....XXXXX... XXoXX ..XXX....XXXXX",
"..XXXX  ....XXXXX...oooX..XXXX  .....XXXX...oooXX.XXXXX .....XXX",
"..XXXX  ....XXXXX...oooX..XXXX  .....XXXX...oooXX.XXXXX .....XXX",
"...     oooo  XXXXooooo....     ooooo XXXXXoooo.....    ooooo XX",
"   XXXXX    oo... ooo      XXXXX     o...  ooo      XXXX     o..",
"   XXXXX    oo... ooo      XXXXX     o...  ooo      XXXX     o..",
"..   .XXX  .ooo   oo .....   .XXXX ..ooo   o  ....   ..XXX ..ooo",
"ooooo...X...oooooXXX....ooooo...XX...ooooXXX.....oooo...XX...ooo",
"ooooo...X...oooooXXX....ooooo...XX...ooooXXX.....oooo...XX...ooo",
"ooo  ....     oooX.....oooo  .....    oooXX....ooooo .....    oo",
"oo    ...  ....oo XXXXXooo    .... .....o  XXXXooo     ... .....",
"oo    ...  ....oo XXXXXooo    .... .....o  XXXXooo     ... .....",
"  ....  .ooo.....   XXXX  ....  ..ooo....   XXXXX ..... ..ooo...",
"...oo   oooo  ....   XXX...oo   ooooo .....   XXX...o   ooooo ..",
"...oo   oooo  ....   XXX...oo   ooooo .....   XXX...o   ooooo ..",
"...oooXXXXX   .ooo..   ....oooXXXXX   ..ooo.   .....oooXXXX   ..",
"...oooXXXXX   .ooo..   ....oooXXXXX   ..ooo.   .....oooXXXX   ..",
"ooooooooXXXX  ...o...   ooooooooXXXXX ...oo...   oooooooXXXXX ..",
"XX....oo XXX..XXXX.....XXX....oo  XXX.XXXXX....XXX.....o  XXX.XX",
"XX....oo XXX..XXXX.....XXX....oo  XXX.XXXXX....XXX.....o  XXX.XX"
};
