/* XPM */
static char *f991aa4fabfb49679334ab4fa913b3b78TzawRmUQTCaiX5L[] = {
/* columns rows colors chars-per-pixel */
"64 64 26 1 ",
"  c #362F28",
". c #373029",
"X c #38302A",
"o c #3A322B",
"O c #3B332C",
"+ c #3C342C",
"@ c #3C342D",
"# c #3E362F",
"$ c #413830",
"% c #443B32",
"& c #453C33",
"* c #473E35",
"= c #493F36",
"- c #4A4037",
"; c #4B4138",
": c #4C4238",
"> c #4E433A",
", c #4E443A",
"< c #4F443B",
"1 c #50453B",
"2 c #50463C",
"3 c #53483E",
"4 c #54493F",
"5 c #574B40",
"6 c #574C41",
"7 c #594D42",
/* pixels */
"####>>>>44443333222233344433####,,,,444444443333,,,,222222222222",
"####>>>>44443333222233333333####,,,,444444443333,,,,222222222222",
"####>>>>44443333222223223333####,,,,444444443333,,,,222222222222",
"####>>>>44443333222222223333####,,,,444444443333,,,,222222222222",
"2222####22225555oooo###O....OOOO22223333222244332222222233333333",
"2222####22225555oooo####....OOOO22223333222244332222222233333333",
"2222####22225555oooo####....OOOO22223333222244442222222233333333",
"2222####22225555oooo####....OOOO22223333222244442222222233333333",
"444422224444    44444444>>>>$$$$#### ...oooo,,,,2222333344443333",
"444422224444    44444444>>>>$$$$####....oooo,,,,2223333344443333",
"444422224444    44444444>>>>$$$$####....oooo,,,,2223333344444444",
"444422224444    44444444>>>>$$$$####....oooo,,,,2222333344444444",
"33332222####44555555777777772222####********oooo2222,,,,22222222",
"33332222####44445555777777772222####********oooo2222,,,,22222222",
"33332222####44445555777777772222####********oooo2223,,,,22222222",
"33332222####44445555777777772222####********oooo2223,,,,22222222",
"44442222####44445555555555555555%%%%&&&&,,,,****    ,,,,22224444",
"34442222####44445555555555555555%%%%&&&&,,,,****    ,,,,22224444",
"33442222####44445555555555555555%%%%&&&&,,,,****    ,,,,22224444",
"33442222o###44445555555555555555%%%%&&&&,,,,****    ,,,,22224444",
"3333OOOO222277777777777777777777&&&&22227777,,,,oooo####11112222",
"3333OOOO222277777777777777777777&&&&22227777,,,,oooo####11112222",
"3333OOOO222277777777777777777777&&&&22227777,,,,oooo####,,112222",
"3333OOOO222277777777777777777777&&&&22227777,,,,oooo####,,,12222",
",,,,oooo2222,,,,77777766$$$$2222$$$$222277777777ooo 2222$$$$4444",
",,,,oooo2222,,,,77777776$$$$2222$$$$222277777777oooo2222$$$$4444",
",,,,oooo2222,,,,77777766$$$$2222$$$$222277777777oooo2222$$$$4444",
",,,,oooo2222,,,,77777766$$$$2222$$$$222277777777oooo2222$$$$4444",
"oooo>>>>5555,,,,1111>>>>4444####2222444433335555####22224444####",
"oooo>>>>5555,,,,1111>>>>4444####2222444433335555####22224344####",
"oooo,,>>5555,,,,1111>>>>4444####2222444433335555####22223333####",
" .oo,,,,5555,,,,1111>>>>4444####2222444433335555####22223333O###",
"    222277777777>>>>>>;;33332222$$$$55555555,,,,2222%%%%3333oooo",
"    222277777777>>>>>>;;33332222$$$$55555555,,,,2222%%%%3333oooo",
"    222277777777>>>>>>>;33332222$$$$55555555,,,,2222%%%%3333oooo",
"    222277777777>>>>>>>;33332222$$$$55555555,,,,2222%%%%3333oooo",
"oo..3333222277775555,,,,22222222,,,,####4444,,,,2222%%%%$$$$OOOO",
"oooo3333222277775555,,,,22222222,,,,####4444,,,,2222%%%%$$$$OOOO",
"oooo3333222277775555,,,,22222222,,,,####4444,,,,2222%%%%$$$$OOOO",
"oooo3333222277775555,,,,22222222,,,,####4444,,,,2222%%%%$$$$OOOO",
"####,,,,2222;--->>>>6666444455551111,,,,####****2222,,,,****----",
"####,,,,2222;;--,,>>6666444455551111,,,,####****2222,,,,****----",
"####,,,,2222----,,,,6666444455551111,,,,####****2222,,,,****----",
"o###,,,,2222----,,,,6666444455551111,,,,####****2222,,,,****----",
"####,,,,,,,,>>>>$$$%333377777777777711112222oooo44442222$$$$----",
"####,,,,,,,,>>>>$$$$333377777777777711112222oooo44442222$$$$----",
"####,,,,,,,,>>>>$$$$333377777777777711112222oooo44442222$$$$----",
"####,,,,,,,,>>>>$$$$333377777777777711112222oooo44442222$$$$----",
">>>>****,,,,****==--,,,,1111,,,,2222;;;;,,,,%%%%OOOO$$$$;;;;>>>;",
">>>>****,,,,****==--,,,,1111,,,,2222;;;;,,,,%%%%OOOO$$$$;;;;>>>>",
">>>>****,,,,****===-,,,,1111,,,,2222;;;;,,22%%%%OOOO$$$$;;;;>>>>",
">>>>****,,,,****===-,,,,1111,,,,2222;;;;,222%%%%OOOO%$$$;;;;>>>>",
"2222====****$$$$********2222>>>>44442222%%%%$$$$$$$$####,,,,2222",
"2222====****$$$$********2222>>>>44442222$$%%$$$$$$$$####,,,,2222",
"2222====****$$$$********2222>>>>33442222$$$$$$$$$$$$####,,,,2222",
"2222====****$$$$********2222>>>>33442222$$$$$$$$$$$$####,,,,2222",
",,,,2222========****$$$$%%%%$$$$********$$$$----,,,,;;;;33332222",
",,,,2222========****$$$$%%%%$$$$********$$$$----,,,,;;;;33332222",
",,,,2222=======*****$$$$%%%%$$$$********$$$$----,,,,;;;;33332222",
",,,,2222=======*****$$$$%%%%$$$$********$$$$----,,,,;;;;33332222",
"222233333333>>;;;;;;---->>>>;;;;;;;;****>>>>>>;;>>>>4444,,,,,,,,",
"222233333333>>;;;;;;---->>>>;;;;;;;;****>>>>>>>>>>>>4444,,,,,,,,",
"222233333333>;;;;;;;---->>>>;;;;;;;;****>>>>>>>>>>>>4444,,,,,,,,",
"222233333333>>;;;;;;---->>>>;;;;;;;;****>>>>>>>>>>>>4444,,,,,,,,"
};
